<svg xmlns="http://www.w3.org/2000/svg" viewBox="0 0 100 100" width="100%" height="100%">
  <g fill="none" stroke="#005a5b" stroke-width="4" stroke-linecap="round" stroke-linejoin="round">
    <path d="M68,32 C60,20 40,24 36,36 L30,54 L46,70 L64,64 C76,60 80,40 68,32 Z" />
    <path d="M56,44 C60,38 64,34 68,32 C66,36 62,40 56,44" />
    <path d="M33,51 L20,54 C18,55 18,58 21,59 L32,62" />
    <path d="M49,67 L52,80 C53,82 56,82 57,79 L60,68" />
    <path d="M26,68 L16,74" stroke-width="3" />
    <path d="M32,74 L25,81" stroke-width="3" />
    <path d="M38,71 L34,83" stroke-width="3" />
    <circle cx="52" cy="48" r="4" fill="#005a5b" />
  </g>
</svg>
